<svg xmlns="http://www.w3.org/2000/svg" viewBox="0 0 200 170" fill="none">
  <circle cx="46" cy="34" r="4" fill="#dbe4f8"/>
  <circle cx="152" cy="46" r="5" fill="#dbe4f8"/>
  <path d="M158 22h12M164 16v12" stroke="#dbe4f8" stroke-width="3" stroke-linecap="round"/>
  <path d="M34 66q0-11 11-11h28l11 11h61q11 0 11 11v50q0 11-11 11H45q-11 0-11-11z" fill="#b9caf0"/>
  <rect x="58" y="60" width="84" height="60" rx="7" fill="#ffffff"/>
  <rect x="72" y="74" width="56" height="7" rx="3.5" fill="#cdd9f4"/>
  <rect x="72" y="90" width="40" height="7" rx="3.5" fill="#cdd9f4"/>
  <path d="M34 92h132v35q0 11-11 11H45q-11 0-11-11z" fill="#d4e1fc"/>
</svg>
